PathFileType	4	(X/Y/Z)	C:\Users\WrightLab\Desktop\Jo\P4V16.trc
DataRate	CameraRate	NumFrames	NumMarkers	Units	OrigDataRate	OrigDataStartFrame	OrigNumFrames
100.00	100.00	       19	19	mm	100.00	263	       525
Frame#	Time	Headset_Front			Headset_Back			Headset_Left			Headset_Right			Left_Shoulder			Right_Shoulder			Sternum			C7			Left Elbow			Right Elbow			Left Wrist			Right Wrist			Left ASIS			Right ASIS			S2			Left Knee			Right Knee			Left Ankle			Right Ankle			
		X1	Y1	Z1	X2	Y2	Z2	X3	Y3	Z3	X4	Y4	Z4	X5	Y5	Z5	X6	Y6	Z6	X7	Y7	Z7	X8	Y8	Z8	X9	Y9	Z9	X10	Y10	Z10	X11	Y11	Z11	X12	Y12	Z12	X13	Y13	Z13	X14	Y14	Z14	X15	Y15	Z15	X16	Y16	Z16	X17	Y17	Z17	X18	Y18	Z18	X19	Y19	Z19	

263	2.620				189.58690	1676.84900	536.33923							180.52281	1531.84338	309.52145	-26.62695	1560.58032	538.01501	156.61624	1478.21948	489.74728	39.88824	1579.28760	382.61578	298.77679	1181.47229	234.70204	-169.49142	1223.82471	612.93378	402.06073	966.35693	437.04532	-100.95924	933.28949	675.96704	192.18634	1052.07446	337.32751	34.71884	1052.69141	630.95361	-41.02602	1070.70300	380.93985	174.13759	563.74286	313.32639	137.61230	612.64557	723.25183	68.66373	69.33349	279.35654	91.69738	123.89156	538.06055	
264	2.630	71.86316	1732.54431	652.93170	194.12614	1675.68860	543.25391							188.36354	1531.33435	317.46475	-21.40513	1560.07251	543.51459	162.68613	1477.30933	497.14728	46.92226	1578.73022	388.94888	310.21375	1182.03320	245.25223	-165.49623	1223.08765	616.30200	411.74509	969.43250	450.64410	-98.66290	932.34979	679.57910	199.27795	1051.00220	343.57584	39.27465	1051.76184	636.46088	-33.60271	1070.47363	385.50204	176.91211	563.37701	316.29785	142.87326	612.27301	728.62500	68.69657	69.45188	279.44040	117.45012	116.41009	558.00720	
265	2.640	63.90235	1715.62720	583.43701										196.06303	1530.42627	325.58392	-16.42651	1559.61426	549.24005	169.25116	1476.42249	506.46402	53.74537	1578.06067	395.44864	321.18274	1182.32056	256.04227	-160.43411	1221.81177	619.46039	420.86325	972.68390	464.86929	-96.19788	931.48566	684.19849	207.57875	1050.83032	352.15747	43.64725	1050.65186	642.22253	-26.11089	1069.85950	390.15466	180.48137	563.82458	319.71564	147.84886	611.29364	733.76898	68.70825	69.83427	279.94608	144.38614	108.00774	577.15796	
266	2.650	68.48035	1715.05981	590.01367										203.57648	1530.19360	334.90234	-11.46979	1558.63574	555.11890	174.10298	1476.12012	513.83795	60.45781	1577.29529	401.99350	332.29718	1182.30103	267.23703	-156.06288	1220.85352	623.01617	431.44958	975.57965	478.08862	-92.77796	930.43250	688.41656	215.40634	1050.75598	360.65057	47.67836	1048.75647	648.22400	-18.52757	1069.28003	395.00464	183.81891	563.41119	322.62610	153.08952	609.19666	738.10187	68.67242	70.24718	280.26639	169.85690	101.86543	597.92529	
267	2.660	84.50205	1729.55908	676.55389	203.51074	1673.34277	565.44446							211.15883	1529.32031	343.11578	-6.73816	1557.81726	560.96594	179.31764	1475.17114	522.07397	66.87376	1576.39160	408.81998	342.44885	1182.54724	278.29962	-152.00964	1219.73242	626.88837	441.10107	977.63470	491.71570	-90.45090	929.53796	693.53479	223.00952	1050.06689	368.64005	51.28432	1047.42676	654.19891	-11.04125	1068.02075	399.69672	187.41299	563.39722	326.65073	157.55629	606.72235	742.40826	68.67013	70.42243	280.46329	195.64322	95.68808	618.50525	
268	2.670				206.04922	1672.51843	573.06189							217.78868	1528.46228	351.20367	-2.49054	1556.70239	567.15948	184.40411	1474.50378	529.99811	73.22637	1575.27197	415.79086	353.17484	1182.52258	289.45734	-148.46350	1218.78320	632.15973	449.88187	979.87653	505.70129	-87.56087	928.36975	698.79401	230.98091	1049.58105	376.82123	55.75324	1045.32593	660.23474	-3.33121	1067.00586	404.48602	190.80188	563.67395	329.88870	162.00635	604.10211	746.56958	68.44737	70.77057	280.79630	218.00668	91.47098	638.85480	
269	2.680				209.82176	1670.90833	580.61542							225.19711	1527.71582	360.39224	1.78081	1555.43665	573.34882	189.14850	1473.39124	539.01825	79.36600	1574.13208	422.83054	363.09241	1182.79517	300.59070	-144.42044	1217.24561	636.50391	459.29483	981.77716	518.77087	-83.87234	926.64630	703.77832	239.06335	1048.65747	384.68271	60.52879	1042.56836	665.55914	4.45582	1065.94373	409.64838	195.16939	563.62262	334.33740	166.07054	600.53394	750.29834	68.72574	71.06460	280.95544	240.40955	87.64113	659.02362	
270	2.690				211.19261	1670.54016	588.63843							231.51633	1526.52063	368.49799	6.48113	1553.73474	579.59052	193.72362	1472.63171	547.95734	85.21934	1572.89246	430.06589	373.02698	1182.64490	312.58911	-140.23387	1215.77515	640.82123	468.74484	982.92603	531.89905	-80.32854	924.99927	709.32214	246.71935	1047.51367	392.13745	64.23452	1040.65710	672.52203	12.07085	1064.20215	414.55783	199.78177	563.79333	338.25690	169.59024	597.60187	754.24030	68.65536	71.52695	281.43243	261.05667	84.92924	679.43115	
271	2.700	97.70973	1725.05408	709.30682	215.24246	1668.66113	596.18195							238.64825	1525.54956	379.45978	10.46967	1552.22693	585.94354	197.61021	1470.90002	556.02417	91.05309	1571.45752	437.54681	382.60538	1182.51587	324.15384	-136.96822	1213.62634	646.54810	476.31546	983.94031	545.23645	-76.75644	923.23242	715.25604	254.40550	1046.55469	401.56448	68.81228	1038.07703	678.63568	19.88268	1063.08118	419.87900	204.27242	563.23572	342.76605	174.06729	593.42035	757.49457	68.91529	72.21762	281.84424	280.81915	82.87576	698.97186	
272	2.710	101.72830	1723.98779	717.42346	216.45061	1667.65198	604.43555							245.28922	1524.43091	390.12341	14.17155	1550.09106	592.69202	202.35194	1469.47009	564.55408	96.64968	1569.95313	445.14853	392.26691	1182.60620	336.37665	-132.38156	1211.17102	651.02472	484.65952	984.24194	558.60889	-72.33504	921.23260	721.43896	262.31186	1045.71228	410.80984	72.10754	1036.03101	684.32367	27.42044	1061.70374	426.13086	209.15430	563.14258	347.00067	177.59201	588.75739	761.07782	68.81799	73.29649	282.15936	299.00595	81.80592	718.70300	
273	2.720	103.58149	1722.70947	726.23950	218.52583	1666.70117	612.47559							250.87047	1523.35266	398.84607	17.73878	1548.12024	599.51245	206.56508	1468.17322	573.35968	101.98040	1568.31848	452.90671	401.01523	1182.50073	347.97971	-128.17224	1208.73987	656.04712	492.64194	985.00165	570.80267	-69.10764	919.31152	728.03870	269.92584	1044.95313	419.42743	76.89395	1033.08398	691.09448	34.99231	1060.01147	431.87485	214.51221	563.19312	351.58072	181.48688	584.43512	764.51385	69.34208	74.28191	282.20001	315.30667	81.64262	738.01398	
274	2.730	107.83396	1720.92810	734.64404	221.27747	1664.93384	620.57867							257.27853	1522.07703	407.22079	21.49155	1546.23230	606.36707	210.93491	1466.59241	582.91943	107.16438	1566.64233	460.81265	410.02356	1182.13464	360.14124	-124.00886	1206.15198	661.23499	500.24094	984.49890	583.58246	-65.14710	917.38025	734.56299	277.64194	1043.58557	428.79300	81.04857	1030.26672	697.72742	42.68723	1058.94165	438.33429	220.11685	562.54114	356.71533	185.24734	580.18658	768.10913	69.76048	75.29418	282.45563	330.75076	81.87794	755.62769	
275	2.740	109.79153	1719.98499	743.53442	222.29596	1663.62439	629.17053							263.08383	1520.83899	418.58200	24.59709	1543.92053	613.39087	215.30168	1465.33362	592.35980	112.26888	1564.98669	468.84576	418.39322	1182.03040	372.81699	-119.91527	1203.27112	666.71387	508.03394	984.22156	596.59406	-61.62700	914.92810	742.14337	285.58969	1043.15283	437.61438	85.56642	1027.47839	705.04688	49.82600	1057.15540	445.16312	226.26033	562.69818	361.88364	189.44049	575.25159	771.12103	70.35313	76.71819	282.83664	344.33026	82.24823	773.33173	
276	2.750	112.47567	1718.91162	752.27563	224.29247	1662.17944	637.60803							269.00650	1519.79309	427.56772	27.70547	1541.62744	620.62506	218.93631	1463.87646	600.69812	117.15599	1563.27136	477.09839	426.58777	1181.65759	385.44083	-115.73314	1200.39502	672.34753	514.52649	983.38275	608.96881	-56.63116	912.18536	748.72192	292.85956	1041.71960	447.51892	90.10665	1025.06702	712.11414	57.15580	1055.91211	452.43115	232.99341	562.67017	367.10233	194.29416	571.22876	774.58539	71.06683	78.29856	282.88565	355.35678	83.37775	790.12079	
277	2.760	114.63706	1717.44653	761.31909	225.93483	1660.96045	646.19635							274.75131	1518.89380	437.93631	31.59293	1539.11243	627.97717	222.47911	1463.10779	611.26031	121.96599	1561.62231	485.54486	435.48782	1181.49097	396.93390	-111.54539	1197.29089	678.71802	520.81464	981.54260	621.33508	-52.73924	910.08240	756.38715	299.93796	1040.86401	457.33411	94.66520	1022.33276	719.53644	64.36480	1054.71326	459.67175	239.55911	562.72986	372.94635	199.24608	567.61493	778.68353	71.85413	80.45122	283.37177	364.96906	84.45458	805.89282	
278	2.770	116.02157	1716.51050	770.52612	227.83537	1659.08728	654.91913							280.11942	1518.06531	447.51651	34.17047	1537.13586	635.60455	226.68120	1461.32458	620.52319	126.59142	1560.12781	494.23035	442.09735	1181.57153	409.67862	-106.82711	1193.95129	685.23621	527.73828	980.67841	632.39514	-48.71838	907.53149	763.95044	307.31033	1040.21411	466.41653	99.57510	1020.09851	727.25946	71.40276	1053.35120	467.19806	246.74947	562.44788	378.88062	204.41809	564.42700	782.97565	72.38863	82.56233	283.39185	373.68262	85.33213	819.47198	
279	2.780	119.00256	1715.07471	779.68408	228.62366	1658.21924	663.83496							285.46713	1517.57141	459.08417	37.55428	1534.51233	643.57263	230.76845	1460.22290	630.02051	130.99904	1558.63806	503.11688	450.36902	1181.80737	422.12155	-102.66783	1191.13977	691.66248	533.89032	979.04523	644.34790	-44.68107	905.54492	772.04297	314.68466	1039.76038	476.16589	104.47775	1017.57849	734.76733	78.49393	1051.84241	474.80304	254.23578	562.13562	385.34293	210.46472	561.44757	787.70728	73.65581	84.61949	284.21890	381.44632	84.82529	831.78394	
280	2.790	121.14330	1714.39307	788.86212	229.42152	1657.31775	672.83936							290.35703	1516.67749	468.91504	40.15186	1532.72815	651.49500	234.12701	1459.69324	640.37207	135.38464	1557.28113	512.24292	456.55328	1181.79297	434.43478	-98.39465	1188.33228	697.87018	539.41632	977.31250	655.80328	-40.01728	902.72992	780.16486	321.76788	1038.67505	486.20419	109.67551	1015.59583	741.97083	85.48979	1050.92188	482.77316	261.83209	562.01001	391.09180	214.99684	560.35504	795.60779	74.88179	87.24121	284.44037	386.99777	83.99708	841.77972	
281	2.800	122.72702	1713.50049	798.47504	230.08237	1656.27417	682.10913							295.30396	1516.36658	479.74899	43.47094	1531.05298	659.39246	237.59764	1459.29749	651.29266	139.68552	1555.99219	521.56281	462.88550	1181.48938	447.42902	-92.84132	1185.02063	704.03052	544.82208	975.37628	668.88782	-35.01799	900.25378	788.35193	328.86230	1038.16223	495.73495	114.42523	1013.54846	749.66901	92.47093	1049.76331	490.56287	269.44675	562.43542	398.18765	220.10381	559.12201	805.08484	76.45504	90.06678	284.98755	390.77832	82.63856	850.21436	
